<svg xmlns="http://www.w3.org/2000/svg" width="1160" height="280" viewBox="0 0 1160 280">
  <rect x="40" y="40" width="200" height="200" rx="48" fill="#1c1410"/>
  <g transform="translate(44,47) scale(6)">
    <rect x="19.1" y="3.2" width="2.4" height="10.5" rx="1.2" fill="#f0428c" transform="rotate(18 20.3 8.4)"/>
    <rect x="8.6" y="8" width="14.8" height="4.2" rx="2.1" fill="#fff3e0"/>
    <path d="M10 12.2 H22 L21 26 Q20.8 27.6 19.2 27.6 H12.8 Q11.2 27.6 11 26 Z" fill="#e8500f"/>
    <path d="M10.2 12.2 H21.8 L21.3 16 H10.7 Z" fill="#ffd9a8"/>
    <circle cx="14.2" cy="19.8" r="1" fill="#3a1c0c"/>
    <circle cx="17.8" cy="19.8" r="1" fill="#3a1c0c"/>
    <path d="M14.1 21.8 Q16 23.4 17.9 21.8" stroke="#3a1c0c" stroke-width="1" fill="none" stroke-linecap="round"/>
    <circle cx="12.9" cy="21.2" r="0.9" fill="#f0428c" opacity="0.55"/>
    <circle cx="19.1" cy="21.2" r="0.9" fill="#f0428c" opacity="0.55"/>
  </g>
  <text x="280" y="178" font-family="Kanit, sans-serif" font-weight="800" font-size="100">
    <tspan fill="#e8500f">SNAP</tspan><tspan fill="#2d1f16">THAI</tspan>
  </text>
  <g transform="rotate(3 945 140)">
    <rect x="838" y="92" width="230" height="110" rx="12" fill="#1c1410"/>
    <rect x="830" y="84" width="230" height="110" rx="12" fill="#ffb30f" stroke="#1c1410" stroke-width="4"/>
    <text x="945" y="166" font-family="Kanit, sans-serif" font-weight="800" font-size="82" fill="#1c1410" text-anchor="middle">HUB</text>
  </g>
</svg>
